<?xml version="1.0" standalone="no"?>
<!DOCTYPE svg PUBLIC "-//W3C//DTD SVG 20010904//EN"
 "http://www.w3.org/TR/2001/REC-SVG-20010904/DTD/svg10.dtd">
<svg version="1.0" xmlns="http://www.w3.org/2000/svg"
 width="421.000000pt" height="421.000000pt" viewBox="0 0 421.000000 421.000000"
 preserveAspectRatio="xMidYMid meet">
<metadata>
Created by potrace 1.11, written by Peter Selinger 2001-2013
</metadata>
<g transform="translate(0.000000,421.000000) scale(0.100000,-0.100000)"
fill="#000000" stroke="none">
<path d="M1694 3603 c-9 -21 -17 -43 -18 -49 -3 -16 -26 -44 -37 -44 -5 0 -33
-12 -62 -26 -28 -14 -77 -32 -107 -40 -120 -32 -254 -131 -370 -274 -19 -23
-40 -48 -45 -54 -19 -21 -65 -96 -65 -106 0 -5 -4 -10 -10 -10 -5 0 -10 -5
-10 -11 0 -6 -11 -33 -25 -60 -13 -27 -22 -49 -18 -49 3 0 1 -6 -5 -13 -6 -7
-14 -28 -17 -47 -3 -18 -8 -37 -11 -42 -3 -4 -7 -16 -9 -25 -1 -10 -10 -45
-19 -78 -8 -33 -17 -73 -20 -90 -3 -16 -8 -41 -11 -55 -3 -14 -7 -38 -10 -55
-3 -16 -7 -41 -10 -55 -10 -51 -17 -96 -20 -125 -2 -16 -6 -55 -10 -85 -3 -30
-8 -73 -11 -95 -2 -22 -6 -150 -9 -285 -2 -135 -4 -248 -4 -251 -1 -4 -23 -21
-51 -39 -53 -34 -57 -41 -38 -62 7 -7 26 -31 43 -53 16 -21 37 -47 46 -56 10
-10 22 -55 32 -125 8 -60 25 -148 37 -196 l21 -86 -66 -64 -66 -64 67 -60 c36
-32 70 -60 74 -62 3 -1 19 10 35 25 20 20 29 24 33 15 11 -34 90 -138 112
-149 17 -9 60 -12 130 -11 102 3 104 4 110 28 5 22 14 26 62 33 45 7 59 6 74
-7 11 -8 37 -29 58 -46 l39 -30 28 32 c16 18 31 41 34 50 9 25 27 28 230 43
82 6 137 24 134 43 -1 4 0 10 1 15 1 4 4 12 5 17 1 6 3 11 5 13 1 1 3 9 5 17
1 8 10 31 18 50 l15 35 2 -30 c1 -16 3 -51 4 -76 4 -74 -16 -70 251 -54 139 8
218 20 223 34 2 6 10 18 18 25 8 8 14 19 14 24 0 5 9 17 20 27 20 18 20 17 21
-21 0 -44 12 -79 25 -80 5 0 16 -4 24 -7 27 -12 191 -14 198 -3 4 6 42 11 87
11 109 1 139 15 169 79 26 54 42 107 52 170 3 21 7 47 9 58 2 10 7 67 11 126
3 59 7 116 9 127 1 11 3 26 4 33 1 9 63 12 281 12 168 -1 296 3 319 10 56 15
131 92 154 158 46 129 3 262 -103 317 -40 20 -116 25 -166 10 -48 -14 -114
-61 -114 -80 0 -7 -4 -15 -10 -17 -14 -4 -24 -89 -16 -133 9 -46 51 -91 103
-109 46 -16 134 -11 174 10 37 18 78 74 81 107 1 15 6 27 11 27 15 0 0 -86
-23 -132 -14 -30 -64 -50 -103 -42 -12 2 -143 5 -290 6 l-268 1 6 26 c4 14 9
35 12 46 8 37 5 142 -7 186 -11 39 -10 45 6 54 41 23 96 88 120 140 55 120 39
300 -35 401 -35 48 -36 52 -37 144 -3 169 -22 270 -74 407 -54 139 -118 238
-236 359 -62 64 -209 184 -225 184 -5 0 -18 8 -29 18 -11 9 -23 15 -27 14 -3
-2 -9 0 -12 5 -8 12 -116 63 -133 63 -8 0 -18 4 -24 10 -5 5 -37 16 -72 25
-143 37 -248 45 -415 31 -82 -6 -149 4 -167 25 -7 8 -70 29 -86 29 -8 0 -21
-17 -30 -37z m1565 -1332 c43 -84 49 -225 14 -313 -11 -28 -20 -37 -31 -33
-12 4 -13 3 -3 -9 11 -13 5 -23 -35 -61 -35 -34 -49 -43 -55 -33 -5 7 -2 23 7
37 9 13 11 21 6 17 -7 -4 -9 6 -7 26 2 18 4 33 5 33 1 0 3 16 4 35 1 25 6 34
16 32 11 -2 11 1 -2 11 -10 8 -16 16 -13 19 3 2 7 33 10 68 4 43 11 68 23 77
9 8 11 12 4 8 -10 -5 -10 -1 0 22 6 15 17 34 22 42 9 12 8 13 -4 6 -13 -8 -13
-7 -1 8 7 9 9 17 3 17 -5 0 -8 9 -5 20 7 26 19 18 42 -29z m392 -520 c-17 -11
-5 -33 17 -30 50 8 95 -42 85 -92 -8 -42 -99 -81 -130 -56 -7 5 -13 6 -13 2 0
-5 -11 5 -25 21 -27 31 -31 63 -14 97 17 33 51 63 74 65 14 1 16 -1 6 -7z
m-90 -188 c13 -16 12 -17 -3 -4 -17 13 -22 21 -14 21 2 0 10 -8 17 -17z"/>
<path d="M3234 2050 c0 -13 4 -16 10 -10 7 7 7 13 0 20 -6 6 -10 3 -10 -10z"/>
<path d="M3175 1910 c-3 -5 -1 -10 4 -10 6 0 11 5 11 10 0 6 -2 10 -4 10 -3 0
-8 -4 -11 -10z"/>
<path d="M3157 3542 c-13 -20 -36 -59 -50 -85 l-27 -48 92 -44 93 -44 22 42
c22 42 56 138 50 143 -2 2 -38 19 -80 38 l-77 36 -23 -38z"/>
<path d="M3400 2850 c0 -6 -4 -9 -9 -5 -14 8 -20 -6 -22 -58 -2 -26 -5 -47 -8
-47 -7 0 -7 -87 0 -94 2 -3 44 -8 92 -12 70 -5 87 -4 88 7 9 96 12 189 8 194
-3 2 -34 7 -69 10 -34 3 -67 8 -71 11 -5 3 -9 0 -9 -6z"/>
<path d="M3323 1095 c-29 -7 -53 -10 -53 -8 0 2 -9 -1 -20 -7 -11 -6 -19 -14
-16 -18 2 -4 7 -32 11 -62 10 -90 11 -92 53 -84 20 4 53 8 72 8 57 1 62 13 48
102 -15 87 -16 87 -95 69z"/>
</g>
</svg>
